<?xml version="1.0" encoding="utf-8"?>
<!-- Generator: Adobe Illustrator 24.0.2, SVG Export Plug-In . SVG Version: 6.00 Build 0)  -->
<svg version="1.1" id="Graphic_Elements" xmlns="http://www.w3.org/2000/svg" xmlns:xlink="http://www.w3.org/1999/xlink" x="0px"
	 y="0px" viewBox="0 0 834.5 845" style="enable-background:new 0 0 834.5 845;" xml:space="preserve">
<style type="text/css">
	.st0{fill:#FFFFFF;}
	.st1{fill:#528AC8;}
	.st2{fill:#7CC7B9;}
</style>
<path class="st0" d="M699.3,823H135.2c-65.2,0-118.5-53.3-118.5-118.5V140.4c0-65.2,53.3-118.5,118.5-118.5h564.1
	c65.2,0,118.5,53.3,118.5,118.5v564.1C817.8,769.7,764.5,823,699.3,823z"/>
<title>logo</title>
<g>
	<path class="st1" d="M530.8,242.6c-3.5-20.1-6.3-40.2-8.9-60.3l-0.9-7.5l-0.5-3.8l-0.1-0.9c0-0.3-0.1-0.6-0.1-0.9l-0.3-1.4
		c-0.8-3.6-2.2-7.1-4.2-10.2c-1.9-3-4.3-5.6-7.1-7.6c-2.7-2-5.7-3.4-8.9-4.3c-3-0.8-6.2-1.1-9.3-0.8l-14,1.3l-15.1,1.3
		c-5,0.4-10.1,0.9-15.1,1.2c-20.1,1.6-40.2,3.1-60.3,4.3c-10.1,0.6-20.1,1.2-30.2,1.8l-3.8,0.2l-1.9,0.1h-0.5h-0.2h-0.1l-0.3,0.1
		c-0.2,0.1-0.5,0.1-0.7,0.1c-0.2,0-0.5,0.1-0.7,0.1c-0.4,0.2-0.9,0.2-1.3,0.4c-4.9,1.7-8.5,6-9.3,11.1c-0.1,0.8-0.2,1.6-0.2,2.3
		c0,0.2,0,0.4,0.1,0.6v0.7l0.1,3.8l0.5,15.1c0.7,20.1,1.1,40.2,1.5,60.3c0.1,5,0.2,10.1,0.2,15.1v0.6v0.8l-0.1,1.6l-0.2,3.3
		c-0.1,1.1-0.2,2.2-0.3,3.3c-0.1,1.1-0.3,2.2-0.5,3.2c-0.3,2.2-0.8,4.3-1.4,6.4c-0.3,1.1-0.5,2.1-0.9,3.2c-0.4,1-0.7,2.1-1.1,3.1
		c-6.1,16.6-18.1,30.5-33.7,38.8c-2,1-3.9,2-6,2.8c-2,0.9-4.1,1.6-6.2,2.3c-2.1,0.6-4.2,1.2-6.4,1.7c-2.1,0.5-4.3,0.8-6.5,1.1
		c-1.1,0.2-2.2,0.3-3.3,0.3l-3.3,0.2c-2.6,0.1-3.3,0.1-4.7,0.1h-7.6l-30.2-0.2c-10.1-0.1-20.1-0.2-30.2-0.3l-28-0.5
		c-1.5,0-3,0.3-4.4,0.8c-1.5,0.5-2.8,1.3-4,2.3c-1.3,1.1-2.3,2.3-3.2,3.8c-0.8,1.5-1.4,3.1-1.6,4.7l-0.1,0.3l0,0.2c0,0,0,0.1,0,0.1
		v0.3l-0.1,1.9l-0.1,3.8l-0.3,7.6l-0.6,15.1c-0.5,10.1-0.9,20.1-1.5,30.2c-0.6,10.1-1.1,20-1.7,30.1c-0.6,10.1-1.3,20.1-2,30.2
		c-0.3,5-0.7,10.1-1.1,15.1l-1,12.8c-0.1,3,0.4,5.9,1.4,8.7c1.1,2.9,2.7,5.7,4.8,8c2.2,2.5,4.8,4.6,7.7,6.2l1.1,0.6
		c0.4,0.2,0.8,0.3,1.2,0.5l1.2,0.5c0.4,0.2,0.8,0.3,1.2,0.4l1.3,0.4c0.2,0.1,0.4,0.1,0.6,0.2l0.7,0.1l1.3,0.3l0.7,0.1
		c0.1,0,0.2,0.1,0.4,0.1l0.5,0c10.1,1,20.1,2.2,30.2,3.3c20.1,2.4,40.2,5,60.3,8.3c-20.1,3.6-40.2,6.3-60.3,8.9
		c-10,1.3-20.1,2.5-30.1,3.6l-0.5,0.1c-0.1,0-0.4,0-0.6,0l-1.2,0.1l-2.5,0.1l-1.2,0c-0.4,0-0.8,0-1.2-0.1l-2.5-0.2
		c-0.8,0-1.7-0.1-2.5-0.2l-2.5-0.4c-0.8-0.1-1.7-0.3-2.5-0.5l-2.4-0.7c-6.6-1.8-12.7-4.8-18.2-8.9c-11.5-8.5-19.3-21-22-35.1
		l-0.3-1.3c-0.1-0.4-0.1-0.9-0.2-1.3l-0.3-2.7l-0.1-1.3l-0.1-1.2l-0.2-1.9l-0.6-7.6c-0.4-5-0.9-10.1-1.2-15.1
		c-0.8-10.1-1.5-20.1-2.3-30.1s-1.4-20.1-2-30.2c-0.6-10.1-1.2-20.1-1.8-30.1l-0.8-15.1l-0.4-7.6l-0.2-3.8l-0.1-1.9v-1.4v-1.6
		c0.1-17,6.6-33.4,18.2-45.9c5.8-6.3,12.6-11.4,20.3-15.2c7.7-3.8,16-6.1,24.6-6.9l3.2-0.2c1-0.1,2.3-0.1,2.8-0.1l3.8-0.1l7.6-0.2
		l15.1-0.4c10-0.3,20.1-0.4,30.2-0.6l30.2-0.4l7.6-0.1c1,0,1.9,0,2.9-0.1c0.2,0,0.3,0,0.5,0c0.2,0,0.3,0,0.5,0
		c0.3-0.1,0.6-0.1,0.9-0.2c0.3-0.1,0.6-0.2,0.9-0.2c0.3-0.2,0.6-0.3,0.9-0.3c0.3-0.2,0.6-0.3,0.8-0.4c1.1-0.6,2.2-1.4,3-2.4
		c0.8-1,1.5-2.1,2-3.2c0.1-0.1,0.1-0.3,0.2-0.4c0.1-0.1,0.1-0.3,0.1-0.5c0-0.3,0.3-0.6,0.2-0.9c0-0.2,0-0.3,0.1-0.5
		c0.1-0.2,0.1-0.3,0.1-0.5c0-0.2,0-0.3,0-0.5v-0.3v-0.1v-0.1v-0.2c0-5,0-10.1,0.1-15.1c0.2-20.1,0.5-40.2,0.9-60.3l0.3-15.1l0.1-3.8
		l0.1-1.5l0.1-1.6l0.2-3.2c0.4-4.2,1.3-8.4,2.4-12.5c2.4-8.1,6.2-15.8,11.4-22.5c5.1-6.7,11.3-12.4,18.5-16.8
		c7.1-4.4,14.9-7.5,23.1-9c2-0.4,4.1-0.6,6.1-0.9c1-0.1,2-0.2,3.1-0.2l3.1-0.1h1.5h0.6h0.5l1.9,0.1l3.8,0.2
		c10.1,0.5,20.1,0.9,30.2,1.5c20.1,1.1,40.2,2.3,60.3,3.7c5,0.3,10.1,0.7,15.1,1.1l15.1,1.2l7.6,0.6l3.8,0.3l2.2,0.2l2.6,0.3
		c6.9,0.8,13.7,3,19.8,6.2c6,3.2,11.4,7.5,15.8,12.6c4.3,5,7.7,10.8,9.8,17.1c2.1,6.1,3.1,12.5,2.9,18.9l-0.1,2.4
		c0,0.4-0.1,0.7-0.1,1l-0.1,0.9l-0.4,3.8l-0.9,7.6C536.7,202.4,534.1,222.5,530.8,242.6z"/>
	<path class="st1" d="M440.3,389c-2.8,1.5-5.5,2.9-8.3,4.4c-2.7,1.5-5.5,3-8.1,4.5c-5.4,3-10.6,6.2-15.8,9.6
		c-5.2,3.3-10.1,6.8-15,10.4c-2.4,1.8-4.8,3.7-7.1,5.6c-2.4,1.9-4.6,3.8-6.8,5.8c-4.5,3.9-8.7,8.1-12.7,12.3
		c-3.9,4.2-7.6,8.6-10.9,13.3l-1.2,1.7c-0.4,0.6-0.8,1.2-1.2,1.8c-0.8,1.2-1.6,2.3-2.3,3.5l-2.1,3.6c-0.4,0.6-0.7,1.2-1,1.8l-1,1.8
		l-1,1.8c-0.3,0.6-0.6,1.2-0.9,1.9c-0.6,1.3-1.2,2.5-1.8,3.8l-1.6,3.8c-0.5,1.3-1,2.6-1.5,3.9c-1.9,5.2-3.5,10.5-4.8,15.9
		c-1.3,5.5-2.3,11-3.1,16.5l-0.3,2.1l-0.2,2.1l-0.5,4.2c-0.3,2.9-0.6,5.9-0.8,8.8c-0.2,2.9-0.5,5.9-0.6,8.8l-0.2,4.4
		c-0.1,1.5-0.1,2.9-0.2,4.4c-0.4,11.7-0.2,23.4,0.4,35.3c0.3,5.9,0.6,12,1,18l1.3,18.3c0.4,6.2,0.9,12.4,1.3,18.6l1.2,18.1l0.4,4.4
		l0.2,2l0.1,1l0.1,0.9c0.2,2,0.6,4,1.1,5.9c0.3,1.2,0.7,2.3,1.3,3.3c0.1,0.2,0.2,0.4,0.3,0.5c0.1,0.2,0.2,0.3,0.4,0.5l0.2,0.2
		c0.1,0.1,0.1,0.2,0.2,0.2c0.2,0.2,0.3,0.4,0.5,0.6c1.5,1.5,3.2,2.7,5.2,3.5c1.9,0.7,3.9,1.1,5.9,0.9l18-0.6l18.6-0.5
		c24.7-0.7,49.5-1.2,74.2-1.6l18.6-0.3l9.3-0.1h1.1l0.3-0.1c0.2,0,0.4,0,0.6,0c0.2,0,0.4-0.1,0.6-0.1c0.2,0,0.4-0.1,0.6-0.1
		c1.5-0.4,3-1,4.2-2c1.3-1,2.3-2.2,3-3.6c0.7-1.4,1.1-2.9,1.2-4.5l0-0.3V662v-9.3l0.1-37.1l0.3-37.1c0-1.7,0-2.6,0.2-5.7
		c0.1-1.3,0.1-2.6,0.2-4c0.1-1.3,0.3-2.6,0.5-4c0.2-1.3,0.4-2.6,0.7-3.9c0.3-1.3,0.6-2.6,1-3.9c0.7-2.6,1.5-5.1,2.5-7.6
		c0.2-0.6,0.5-1.2,0.8-1.9l0.8-1.8c0.6-1.2,1.2-2.4,1.8-3.6c0.3-0.6,0.6-1.2,1-1.7l1-1.7c0.7-1.1,1.4-2.3,2.1-3.4
		c0.7-1.1,1.6-2.1,2.4-3.2c0.8-1.1,1.6-2.1,2.5-3c1.7-2,3.6-3.9,5.5-5.6c7.8-7.1,17.1-12.5,27.3-15.6c2.5-0.7,5.1-1.4,7.7-1.8
		c1.3-0.2,2.6-0.4,3.9-0.6l1.9-0.2c0.7-0.1,1.3-0.1,2-0.1c1.3-0.1,2.6-0.1,3.9-0.2h1h0.5h0.3h1.2l4.6,0.1c12.4,0.3,24.7,0.6,37.1,1
		s24.7,0.8,37.1,1.2l9.3,0.3l4.6,0.2l2.3,0.1h0.6h0.9c2.5,0.2,5-0.2,7.3-1.1l0.2-0.1l0.2-0.1l0.4-0.2c0.3-0.1,0.6-0.3,0.9-0.4
		c0.3-0.1,0.5-0.4,0.8-0.5c0.3-0.1,0.6-0.3,0.8-0.5c0.5-0.4,1.1-0.8,1.6-1.2c0.2-0.2,0.5-0.4,0.8-0.7c0.2-0.2,0.4-0.5,0.7-0.8
		c1.9-2,3.3-4.5,4.1-7.1c0.1-0.3,0.2-0.7,0.3-1l0.2-0.5c0-0.2,0.1-0.4,0.1-0.5c0-0.4,0.1-0.8,0.2-1.1l0.1-0.3c0-0.1,0-0.2,0-0.4
		l0.1-1.2l0.5-9.3l1-18.6c1.4-24.8,3-49.5,4.8-74.3c0.9-12.4,1.9-24.7,2.9-37.1l0.2-2.3l0-0.6c0-0.2,0-0.4,0-0.5l0-0.8l0.1-1.7v-0.4
		v-0.4v-0.8c0-0.6,0-1.1,0-1.7l-0.2-1.7c-0.1-0.6-0.1-1.1-0.2-1.7l-0.4-1.7l-0.2-0.9c-0.1-0.3-0.2-0.6-0.3-0.8l-0.6-1.7
		c-0.2-0.6-0.4-1.1-0.7-1.6l-0.8-1.6l-0.9-1.6c-0.3-0.5-0.6-1.1-0.9-1.6l-1.1-1.5c-0.2-0.2-0.3-0.5-0.5-0.8l-0.6-0.7
		c-3.3-3.9-7.4-7-12-9.2c-0.6-0.3-1.2-0.5-1.8-0.8s-1.2-0.5-1.8-0.7l-1.9-0.5c-0.6-0.2-1.3-0.4-1.9-0.5l-2-0.3l-1-0.2l-1.2-0.1
		l-4.6-0.5c-12.4-1.4-24.8-2.8-37.1-4.5c12.4-1.8,24.7-3.3,37.1-4.9l4.6-0.6l1.2-0.1l1.3-0.1l2.6-0.1c0.9-0.1,1.8-0.1,2.7,0l2.7,0.2
		c0.9,0.1,1.8,0.2,2.7,0.4s1.8,0.3,2.7,0.4c7.2,1.6,14,4.8,19.8,9.4l1.1,0.9c0.4,0.3,0.7,0.6,1,0.9l2.1,1.9c0.7,0.7,1.3,1.3,1.9,2.1
		l1.9,2.1l1.7,2.3c0.6,0.8,1.1,1.6,1.6,2.4l1.5,2.5c0.2,0.4,0.5,0.8,0.7,1.3l0.6,1.3l1.2,2.7c0.4,0.9,0.7,1.8,1,2.7
		c0.3,0.9,0.6,1.9,0.9,2.8l0.7,2.9l0.3,1.4l0.2,0.8l0.1,0.8l0.4,2.9l0.2,1.5l0.1,1.2l0.2,2.3c1.2,12.4,2.2,24.7,3.3,37.1
		c2.1,24.7,3.9,49.5,5.5,74.2l1.2,18.6l0.6,9.3l0.1,1.2c0,0.2,0,0.5,0,0.8v0.9c0,1.2,0,2.4,0,3.6c0,0.6,0,1.2-0.1,1.8l-0.2,1.8
		c-0.1,1.2-0.3,2.4-0.4,3.6c-3.1,19.4-14.9,36.4-32,46.2c-8.6,4.9-18.3,7.8-28.2,8.4l-1.9,0.1h-0.8h-0.6l-2.3,0.1l-4.6,0.2l-9.3,0.4
		c-12.4,0.5-24.7,1.1-37.1,1.5c-12.4,0.4-24.7,0.9-37.1,1.3l-4.6,0.2h-1.2h-0.3h-0.1l-0.2,0c-0.2,0.1-0.5,0.1-0.8,0.1
		c-0.1,0-0.2,0-0.4,0l-0.3,0.1c-0.2,0.1-0.5,0.1-0.7,0.2H570l-0.2,0.1l-0.3,0.1c-0.2,0.1-0.4,0.1-0.7,0.2c-1.7,0.8-3.3,2-4.5,3.4
		c-0.3,0.3-0.6,0.7-0.9,1.1c-0.2,0.2-0.3,0.4-0.4,0.6c-0.1,0.2-0.2,0.4-0.4,0.6c-0.1,0.2-0.2,0.4-0.3,0.6l-0.2,0.3
		c-0.1,0.1-0.1,0.2-0.2,0.3c-0.1,0.2-0.1,0.4-0.2,0.6c0,0.1-0.1,0.2-0.1,0.3s0,0.2-0.1,0.3c-0.1,0.4-0.2,0.8-0.3,1.2
		c0,0.2-0.1,0.4-0.1,0.6c0,0.2,0,0.4,0,0.6c0,0.2-0.1,0.4-0.1,0.6c0,0.2,0,0.4,0,0.7c0-0.1,0,2.1,0,3.5l0.7,37.1l0.5,37.1l0.1,9.3
		v4.6v2.3v1.2l-0.1,2c-0.3,10.8-2.9,21.5-7.9,31.2c-10.1,19.5-28.4,33.4-49.9,37.8c-1.3,0.2-2.7,0.4-4,0.6c-1.3,0.2-2.7,0.4-4,0.5
		c-1.3,0.1-2.7,0.2-4,0.2l-2,0.1h-1.2H480l-18.6-0.1c-24.7-0.2-49.5-0.5-74.2-0.9l-18.6-0.3l-19.1-0.4c-5.2-0.2-10.4-0.9-15.5-2.3
		c-15.1-4-28.3-13-37.7-25.4c-0.8-1-1.5-2.1-2.2-3.2c-0.7-1.1-1.4-2.3-2.1-3.4c-0.7-1.2-1.3-2.4-1.9-3.6c-0.6-1.2-1.1-2.4-1.7-3.7
		c-1.9-4.6-3.3-9.5-4.2-14.4c-0.7-4.1-1.1-8.3-1.3-12.5l-0.1-1.4l0-1.3c0-0.9,0-1.8-0.1-2.6v-4.9l0.4-19l0.4-18.5
		c0.2-12.4,0.6-25,1.3-37.9c0.4-6.4,0.9-12.9,1.5-19.4c0.4-3.2,0.7-6.5,1.1-9.7l0.6-4.9c0.2-1.6,0.5-3.2,0.8-4.9
		c0.9-6.5,2.2-12.9,3.5-19.3c0.7-3.2,1.4-6.4,2.1-9.5c0.4-1.6,0.8-3.3,1.2-4.9l0.6-2.4l0.7-2.4c1.8-6.5,4-13,6.5-19.3
		c2.5-6.4,5.5-12.6,8.9-18.6c3.3-6,7.1-11.8,11.4-17.2l1.6-2c0.5-0.7,1.1-1.3,1.6-2l3.3-3.9c1.1-1.3,2.3-2.5,3.5-3.7
		c0.6-0.6,1.2-1.2,1.8-1.8l1.8-1.8c1.2-1.2,2.4-2.4,3.7-3.5l3.8-3.3c1.3-1.1,2.6-2.1,3.9-3.1c1.3-1,2.6-2.1,4-3
		c5.2-3.9,10.7-7.5,16.4-10.7c5.6-3.3,11.3-6.2,17.1-8.9c5.8-2.7,11.7-5.1,17.7-7.3C415.8,394.8,428,391.4,440.3,389z"/>
	<path class="st2" d="M279.9,467c-0.7-2-1.4-4.1-2-6.1s-1.2-4.1-1.8-6.2c-0.3-1-0.5-2.1-0.8-3.2c-0.2-1.1-0.5-2.1-0.7-3.2l-0.7-3.2
		l-0.6-3.2c-1.5-8.8-2.2-17.7-1.9-26.6c0.1-4.6,0.5-9.2,1.2-13.7c0.3-2.3,0.8-4.6,1.2-6.9c0.2-1.2,0.5-2.3,0.8-3.4
		c0.3-1.2,0.6-2.3,0.9-3.4c2.7-9.4,6.8-18.3,12.1-26.5l2.1-3c0.7-1,1.4-2.1,2.2-3c1.6-1.9,3.1-4,4.8-5.8l2.6-2.8
		c0.9-0.9,1.8-1.7,2.7-2.6c0.9-0.9,1.8-1.8,2.7-2.6l2.9-2.4c7.7-6.4,16.1-11.7,25.1-16c1.1-0.5,2.2-1.1,3.3-1.6l3.4-1.4l3.4-1.4
		c1.1-0.5,2.2-0.8,3.3-1.2c2.2-0.8,4.5-1.7,6.7-2.4l3.4-1.1c1.1-0.4,2.3-0.7,3.5-1l3.5-1l3.5-0.9c2.3-0.6,4.6-1.1,6.9-1.6
		c4.5-1,9.1-1.8,13.6-2.5c17.8-2.8,34.7-4.2,50-6.4c1.9-0.3,3.8-0.6,5.6-0.9l5.3-1.1c0.9-0.2,1.8-0.3,2.6-0.5l2.6-0.6
		c1.7-0.4,3.5-0.8,5.2-1.3c3.5-1,6.9-1.9,10.4-3.1l2.6-0.8l1.3-0.4l1.3-0.5l5.1-1.9c27.1-10.6,52.6-27.1,76.7-46.7l0.4-0.3
		c13.1-10.7,32.4-8.8,43.2,4.3c3.7,4.5,6,10,6.7,15.8l0.2,2l0.2,1.7l0.3,3.4c0.2,2.2,0.4,4.4,0.5,6.6c0.3,4.4,0.6,8.7,0.8,13
		c0.3,8.6,0.4,17.3,0.2,25.9c-0.2,8.6-0.6,17.3-1.4,26c-0.4,4.3-0.8,8.7-1.4,13c-0.5,4.3-1.2,8.7-1.9,13
		c-2.9,17.7-7.5,35.1-13.8,51.9c-3.4,8.7-7.4,17.2-12,25.3c-4.7,8.4-10.3,16.3-16.5,23.7c-3.2,3.7-6.6,7.3-10.3,10.7
		c-1.9,1.7-3.7,3.3-5.7,4.9c-1,0.8-1.9,1.6-2.9,2.3l-3,2.2l-0.8,0.5l-0.8,0.6l-1.7,1.1c-1,0.7-2.1,1.4-3.2,2l-6.1,3.3
		c-2,1.2-4,2.1-6.1,3s-4,1.9-6,2.8c-16,7.1-32.8,12.3-50,15.5c-16.8,3.2-34,4.3-51.1,3.4c-16.9-0.9-33.5-3.9-49.1-9.3
		c16.1-1.2,32-3.8,47.6-7.6c15-3.8,29.7-8.8,43.9-15.1c13.7-6.2,26.8-13.6,39.2-22.1c1.5-1,3-2.2,4.5-3.2c1.5-1.1,3-2.1,4.3-3.3
		l4.1-3.2c0.6-0.5,1.2-1,1.7-1.5l0.8-0.7l0.4-0.4l0.4-0.4c2.2-2.2,4.2-4.6,6.2-7c1.9-2.5,3.7-5.1,5.4-7.8
		c6.8-10.9,11.8-23.5,15.4-37c3.6-13.9,6.1-28.1,7.4-42.5c0.3-3.7,0.7-7.3,0.9-11c0.2-3.7,0.5-7.4,0.6-11.1s0.2-7.5,0.2-11.2
		s0.1-7.5,0-11.3c-0.1-7.5-0.4-15-0.8-22.5c-0.2-3.7-0.5-7.5-0.8-11.2c-0.2-1.9-0.3-3.7-0.5-5.5l-0.3-2.7l-0.3-2.3l50.3,19.8
		c-14.1,11.7-29.2,22.3-45,31.6c-4,2.4-8.2,4.5-12.3,6.7c-2.1,1.1-4.2,2.1-6.3,3.1l-3.2,1.6l-3.2,1.5l-6.5,2.8l-6.6,2.6
		c-1.1,0.4-2.2,0.9-3.3,1.3l-3.4,1.2c-2.3,0.8-4.5,1.6-6.8,2.3l-6.9,2.1l-1.7,0.5l-1.7,0.4l-3.5,0.9c-2.3,0.6-4.6,1.2-7,1.7
		l-7.1,1.4c-2.4,0.5-4.8,0.8-7.1,1.1l-3.6,0.5c-1.2,0.2-2.4,0.3-3.6,0.4l-7.2,0.7c-2.3,0.2-4.6,0.3-6.9,0.4
		c-18.2,0.9-34.9,0.2-50.6,0.6c-1.9,0.1-3.9,0.1-5.8,0.2s-3.8,0.2-5.7,0.3c-1.8,0.1-3.8,0.2-5.6,0.4l-2.8,0.2l-2.7,0.3
		c-1.8,0.2-3.6,0.5-5.4,0.8c-1.8,0.3-3.6,0.6-5.5,0.9c-0.9,0.2-1.8,0.3-2.7,0.5l-2.6,0.6l-2.6,0.6c-0.9,0.2-1.7,0.5-2.5,0.7
		c-13.6,3.7-26,9.8-36.2,19.4l-1.9,1.8c-0.6,0.6-1.3,1.2-1.8,1.9c-1.2,1.3-2.4,2.6-3.5,4.1l-1.7,2.1l-1.6,2.2l-0.8,1.1
		c-0.3,0.4-0.5,0.8-0.8,1.2l-1.5,2.3c-3.9,6.6-7.1,13.6-9.6,20.9C283.6,433.3,281.1,449.9,279.9,467z"/>
</g>
</svg>
