<?xml version="1.0" encoding="UTF-8" standalone="no"?>
<!-- Created with Inkscape (http://www.inkscape.org/) -->

<svg
   xmlns:dc="http://purl.org/dc/elements/1.1/"
   xmlns:cc="http://creativecommons.org/ns#"
   xmlns:rdf="http://www.w3.org/1999/02/22-rdf-syntax-ns#"
   xmlns:svg="http://www.w3.org/2000/svg"
   xmlns="http://www.w3.org/2000/svg"
   xmlns:sodipodi="http://sodipodi.sourceforge.net/DTD/sodipodi-0.dtd"
   xmlns:inkscape="http://www.inkscape.org/namespaces/inkscape"
   width="125.39013"
   height="35.000061"
   viewBox="0 0 33.176137 9.2604329"
   version="1.1"
   id="svg8"
   inkscape:version="0.92.0 r15299"
   sodipodi:docname="adagio aparthotel.svg">
  <defs
     id="defs2" />
  <sodipodi:namedview
     id="base"
     pagecolor="#ffffff"
     bordercolor="#666666"
     borderopacity="1.0"
     inkscape:pageopacity="0.0"
     inkscape:pageshadow="2"
     inkscape:zoom="5.4363637"
     inkscape:cx="62.500097"
     inkscape:cy="17.000013"
     inkscape:document-units="mm"
     inkscape:current-layer="layer1"
     showgrid="false"
     fit-margin-top="0"
     fit-margin-left="0"
     fit-margin-right="0"
     fit-margin-bottom="0"
     units="px"
     inkscape:window-width="1280"
     inkscape:window-height="744"
     inkscape:window-x="-4"
     inkscape:window-y="-4"
     inkscape:window-maximized="1" />
  <metadata
     id="metadata5">
    <rdf:RDF>
      <cc:Work
         rdf:about="">
        <dc:format>image/svg+xml</dc:format>
        <dc:type
           rdf:resource="http://purl.org/dc/dcmitype/StillImage" />
        <dc:title></dc:title>
      </cc:Work>
    </rdf:RDF>
  </metadata>
  <g
     inkscape:label="Layer 1"
     inkscape:groupmode="layer"
     id="layer1"
     transform="translate(-130.11828,-302.82082)">
    <g
       id="g111"
       transform="translate(0,-0.13228804)">
      <path
         id="path14"
         style="fill:#d50032;stroke-width:0.26458332"
         d="m 130.11831,307.75266 a 4.2968333,4.2968333 0 1 1 4.29948,4.32859 4.3127083,4.3127083 0 0 1 -4.29948,-4.32859 m 4.29683,2.67759 a 2.6775833,2.6775833 0 1 0 -2.65906,-2.67759 2.6696458,2.6696458 0 0 0 2.65906,2.67759"
         inkscape:connector-curvature="0" />
      <path
         id="path16"
         style="fill:#d50032;stroke-width:0.26458332"
         d="m 158.16414,309.48833 h -0.93663 v -4.04548 h 0.93663 z m 0.10054,-5.22817 a 0.52916666,0.52916666 0 0 1 -0.16933,0.41804 0.57679166,0.57679166 0 0 1 -0.40217,0.15346 0.58737499,0.58737499 0 0 1 -0.4101,-0.15346 0.52916666,0.52916666 0 0 1 -0.16934,-0.41804 0.54504166,0.54504166 0 0 1 0.16934,-0.42598 0.59002083,0.59002083 0 0 1 0.4101,-0.15345 0.57943749,0.57943749 0 0 1 0.40217,0.15345 0.54504166,0.54504166 0 0 1 0.16933,0.42598"
         inkscape:connector-curvature="0" />
      <path
         id="path18"
         style="fill:#d50032;stroke-width:0.26458332"
         d="m 162.13289,307.46162 a 1.190625,1.190625 0 1 1 -1.19063,-1.20121 1.1959167,1.1959167 0 0 1 1.19063,1.20121 m -1.19063,-2.10344 a 2.1034375,2.1034375 0 1 0 2.08757,2.10344 2.0981458,2.0981458 0 0 0 -2.08757,-2.10344"
         inkscape:connector-curvature="0" />
      <path
         id="path20"
         style="fill:#d50032;stroke-width:0.26458332"
         d="m 142.38439,308.82952 a 3.4819166,3.4819166 0 0 0 0.65881,-0.0476 v -1.03452 a 1.8282708,1.8282708 0 0 0 -0.22489,-0.0476 2.0822708,2.0822708 0 0 0 -0.32544,-0.0238 2.159,2.159 0 0 0 -0.31486,0.0238 0.96572915,0.96572915 0 0 0 -0.28575,0.0847 0.52916666,0.52916666 0 0 0 -0.20372,0.17463 0.48683333,0.48683333 0 0 0 -0.0767,0.2831 0.49477083,0.49477083 0 0 0 0.20902,0.46038 1.0795,1.0795 0 0 0 0.56356,0.127 m -0.0767,-3.48721 a 2.2939375,2.2939375 0 0 1 0.77523,0.12435 1.2488333,1.2488333 0 0 1 0.508,0.32544 1.2250208,1.2250208 0 0 1 0.26458,0.508 2.4817916,2.4817916 0 0 1 0.082,0.65352 v 2.45269 q -0.21695,0.045 -0.65352,0.11112 a 6.6622082,6.6622082 0 0 1 -0.98689,0.0661 2.9580416,2.9580416 0 0 1 -0.66411,-0.0688 1.3917083,1.3917083 0 0 1 -0.51329,-0.2249 1.0583333,1.0583333 0 0 1 -0.33337,-0.40216 1.3996458,1.3996458 0 0 1 -0.11907,-0.61119 1.1853333,1.1853333 0 0 1 0.13494,-0.58738 1.1086042,1.1086042 0 0 1 0.36777,-0.39158 1.5875,1.5875 0 0 1 0.52917,-0.21696 3.0188958,3.0188958 0 0 1 0.63764,-0.0661 2.9553958,2.9553958 0 0 1 0.68792,0.0847 v -0.15346 a 1.2197292,1.2197292 0 0 0 -0.0397,-0.30956 0.61912499,0.61912499 0 0 0 -0.39158,-0.43392 1.1138958,1.1138958 0 0 0 -0.39687,-0.0609 3.5427708,3.5427708 0 0 0 -0.59532,0.045 2.667,2.667 0 0 0 -0.44185,0.10848 l -0.11642,-0.75671 a 3.5612916,3.5612916 0 0 1 0.52917,-0.12435 4.0322499,4.0322499 0 0 1 0.7276,-0.0635"
         inkscape:connector-curvature="0" />
      <path
         id="path22"
         style="fill:#d50032;stroke-width:0.26458332"
         d="m 150.55737,308.82952 a 3.4819166,3.4819166 0 0 0 0.65881,-0.0476 v -1.03452 a 1.8282708,1.8282708 0 0 0 -0.22489,-0.0476 2.0822708,2.0822708 0 0 0 -0.32544,-0.0238 2.1616458,2.1616458 0 0 0 -0.31486,0.0238 0.96572915,0.96572915 0 0 0 -0.28575,0.0847 0.52916666,0.52916666 0 0 0 -0.20373,0.17463 0.48683333,0.48683333 0 0 0 -0.0767,0.2831 0.49477083,0.49477083 0 0 0 0.20902,0.46038 1.0821458,1.0821458 0 0 0 0.56356,0.127 m -0.0661,-3.48721 a 2.2912916,2.2912916 0 0 1 0.79375,0.11642 1.2488333,1.2488333 0 0 1 0.508,0.32543 1.2250208,1.2250208 0 0 1 0.26459,0.508 2.4897291,2.4897291 0 0 1 0.082,0.65352 v 2.45269 q -0.21696,0.045 -0.65352,0.11113 a 6.6622082,6.6622082 0 0 1 -0.9869,0.0661 2.9580416,2.9580416 0 0 1 -0.6641,-0.0688 1.3943541,1.3943541 0 0 1 -0.5133,-0.2249 1.0583333,1.0583333 0 0 1 -0.33337,-0.40216 1.397,1.397 0 0 1 -0.11906,-0.61119 1.1853333,1.1853333 0 0 1 0.13493,-0.58737 1.1086042,1.1086042 0 0 1 0.36778,-0.39159 1.5875,1.5875 0 0 1 0.52916,-0.21696 3.0188958,3.0188958 0 0 1 0.63765,-0.0661 2.9553958,2.9553958 0 0 1 0.68791,0.0847 v -0.15345 a 1.2197292,1.2197292 0 0 0 -0.0397,-0.30957 0.61912499,0.61912499 0 0 0 -0.39159,-0.43391 1.1138958,1.1138958 0 0 0 -0.39687,-0.0609 3.540125,3.540125 0 0 0 -0.59531,0.045 2.6643541,2.6643541 0 0 0 -0.44186,0.10848 l -0.11641,-0.75671 a 3.5612916,3.5612916 0 0 1 0.52916,-0.12435 4.0322499,4.0322499 0 0 1 0.71702,-0.0635"
         inkscape:connector-curvature="0" />
      <path
         id="path24"
         style="fill:#d50032;stroke-width:0.26458332"
         d="m 147.26595,308.7131 a 2.3600833,2.3600833 0 0 1 -0.26458,0.0423 3.175,3.175 0 0 1 -0.38365,0.0185 1.000125,1.000125 0 0 1 -0.81227,-0.35189 1.4710833,1.4710833 0 0 1 -0.29369,-0.97102 1.6562916,1.6562916 0 0 1 0.23548,-0.94456 0.83872916,0.83872916 0 0 1 0.74613,-0.34925 1.2964583,1.2964583 0 0 1 0.43656,0.0741 1.4472708,1.4472708 0 0 1 0.32808,0.15875 z m 0,-5.62769 v 2.49502 a 2.397125,2.397125 0 0 0 -0.38629,-0.15345 1.7541875,1.7541875 0 0 0 -0.52917,-0.0688 1.8309166,1.8309166 0 0 0 -0.76464,0.15082 1.55575,1.55575 0 0 0 -0.56356,0.42862 1.8970625,1.8970625 0 0 0 -0.3519,0.6694 2.95275,2.95275 0 0 0 -0.11906,0.87048 2.5320625,2.5320625 0 0 0 0.14287,0.87841 1.8520833,1.8520833 0 0 0 0.41011,0.66411 1.778,1.778 0 0 0 0.65352,0.41539 2.365375,2.365375 0 0 0 0.85725,0.14817 5.4371874,5.4371874 0 0 0 0.88635,-0.0688 5.5165624,5.5165624 0 0 0 0.6985,-0.15346 v -5.48217 a 7.7813957,7.7813957 0 0 1 -0.93662,-0.79375"
         inkscape:connector-curvature="0" />
      <path
         id="path26"
         style="fill:#d50032;stroke-width:0.26458332"
         d="m 141.2017,310.73187 c -0.0238,0.0529 -0.0476,0.11642 -0.0794,0.1905 -0.0318,0.0741 -0.0609,0.15875 -0.0926,0.24606 h 0.33867 q -0.0476,-0.13229 -0.0926,-0.2487 c -0.0291,-0.0767 -0.0556,-0.14023 -0.0767,-0.1905 m 0.29633,0.82285 -0.0423,-0.12171 c -0.0159,-0.0397 -0.0291,-0.0794 -0.0423,-0.12171 h -0.42598 l -0.0423,0.12171 -0.0423,0.11906 h -0.19844 q 0.0582,-0.16404 0.11112,-0.30691 0.0529,-0.14288 0.10319,-0.26459 c 0.0317,-0.0847 0.0661,-0.16404 0.0979,-0.23812 0.0318,-0.0741 0.0661,-0.15081 0.10054,-0.22225 h 0.17992 c 0.0344,0.0741 0.0688,0.14817 0.10054,0.22225 0.0318,0.0741 0.0661,0.1561 0.10054,0.23812 l 0.10319,0.26459 q 0.0529,0.14023 0.11112,0.30691 z"
         inkscape:connector-curvature="0" />
      <path
         id="path28"
         style="fill:#d50032;stroke-width:0.26458332"
         d="m 142.36851,310.6816 h -0.11906 v 0.3519 h 0.09 a 0.46037499,0.46037499 0 0 0 0.20902,-0.0371 0.14816666,0.14816666 0 0 0 0.0741,-0.14287 0.174625,0.174625 0 0 0 -0.0185,-0.0847 0.142875,0.142875 0 0 0 -0.0529,-0.0529 0.23547916,0.23547916 0 0 0 -0.082,-0.0265 0.60060416,0.60060416 0 0 0 -0.10055,0 m -0.0132,-0.1614 a 0.60854166,0.60854166 0 0 1 0.34395,0.082 0.28839583,0.28839583 0 0 1 0.11907,0.26459 0.34925,0.34925 0 0 1 -0.0317,0.1561 0.26458333,0.26458333 0 0 1 -0.0926,0.10583 0.42862499,0.42862499 0 0 1 -0.14816,0.0609 0.94985415,0.94985415 0 0 1 -0.20109,0.0185 h -0.0926 v 0.33602 h -0.18786 v -1.00542 a 0.89429166,0.89429166 0 0 1 0.14552,-0.0212 h 0.14553"
         inkscape:connector-curvature="0" />
      <path
         id="path30"
         style="fill:#d50032;stroke-width:0.26458332"
         d="m 143.53268,310.73187 c -0.0238,0.0529 -0.0503,0.11642 -0.0794,0.1905 -0.0291,0.0741 -0.0609,0.15875 -0.0926,0.24606 h 0.33867 q -0.0476,-0.13229 -0.0926,-0.2487 c -0.0291,-0.0767 -0.0556,-0.14023 -0.0767,-0.1905 m 0.30691,0.82285 -0.0423,-0.12171 c -0.0159,-0.0397 -0.0291,-0.0794 -0.0423,-0.12171 h -0.43921 l -0.0423,0.12171 -0.0423,0.11906 h -0.19579 q 0.0582,-0.16404 0.11112,-0.30691 0.0529,-0.14288 0.10319,-0.26459 c 0.0318,-0.0847 0.0662,-0.16404 0.0979,-0.23812 0.0317,-0.0741 0.0661,-0.15081 0.10054,-0.22225 h 0.16669 c 0.0344,0.0741 0.0688,0.14817 0.10054,0.22225 0.0317,0.0741 0.0661,0.1561 0.10054,0.23812 l 0.10319,0.26459 c 0.0344,0.0926 0.0714,0.19579 0.11112,0.30691 z"
         inkscape:connector-curvature="0" />
      <path
         id="path32"
         style="fill:#d50032;stroke-width:0.26458332"
         d="m 144.69156,310.6816 h -0.11113 v 0.34131 h 0.09 a 0.92339582,0.92339582 0 0 0 0.12171,0 0.26458333,0.26458333 0 0 0 0.0873,-0.0265 0.12964583,0.12964583 0 0 0 0.0529,-0.0529 0.16933333,0.16933333 0 0 0 0.0185,-0.082 0.1666875,0.1666875 0 0 0 -0.0159,-0.10319 0.13229166,0.13229166 0 0 0 -0.0529,-0.0529 0.22225,0.22225 0 0 0 -0.0794,-0.0265 0.59266666,0.59266666 0 0 0 -0.10054,0 m -0.0318,-0.15875 a 0.59795833,0.59795833 0 0 1 0.34131,0.082 0.28575,0.28575 0 0 1 0.11906,0.25135 0.28045833,0.28045833 0 0 1 -0.19579,0.2831 l 0.0635,0.082 0.0741,0.10584 c 0.0238,0.037 0.0476,0.0767 0.0714,0.11906 0.0238,0.0423 0.0423,0.0794 0.0609,0.11906 h -0.20902 l -0.0609,-0.10583 -0.0661,-0.10583 -0.0661,-0.0979 -0.0609,-0.082 h -0.15611 v 0.381 h -0.18785 v -1.00542 a 0.96043749,0.96043749 0 0 1 0.14552,-0.0212 h 0.13758"
         inkscape:connector-curvature="0" />
      <polygon
         transform="matrix(0.26458333,0,0,0.26458333,124.82664,299.64583)"
         id="polygon34"
         style="fill:#d50032"
         points="81.13,41.14 81.13,41.75 79.92,41.75 79.92,45.04 79.21,45.04 79.21,41.75 78.01,41.75 78.01,41.14 " />
      <polygon
         transform="matrix(0.26458333,0,0,0.26458333,124.82664,299.64583)"
         id="polygon36"
         style="fill:#d50032"
         points="84.92,43.31 83.22,43.31 83.22,45.04 82.51,45.04 82.51,41.14 83.22,41.14 83.22,42.7 84.92,42.7 84.92,41.14 85.63,41.14 85.63,45.04 84.92,45.04 " />
      <path
         id="path38"
         style="fill:#d50032;stroke-width:0.26458332"
         d="m 148.10997,311.04673 a 0.52916666,0.52916666 0 0 0 0.0212,0.15345 0.34395833,0.34395833 0 0 0 0.0609,0.11642 0.26458333,0.26458333 0 0 0 0.0952,0.0741 0.31485416,0.31485416 0 0 0 0.26459,0 0.26458333,0.26458333 0 0 0 0.0952,-0.0741 0.3413125,0.3413125 0 0 0 0.0609,-0.11642 0.52916666,0.52916666 0 0 0 0.0212,-0.15345 0.52916666,0.52916666 0 0 0 -0.0212,-0.15346 0.33866666,0.33866666 0 0 0 -0.0609,-0.11907 0.26458333,0.26458333 0 0 0 -0.0952,-0.0741 0.31485416,0.31485416 0 0 0 -0.26459,0 0.26458333,0.26458333 0 0 0 -0.0952,0.0767 0.35454166,0.35454166 0 0 0 -0.0609,0.11906 0.52916666,0.52916666 0 0 0 -0.0212,0.15346 m 0.79375,0 a 0.64029166,0.64029166 0 0 1 -0.0397,0.23283 0.48683333,0.48683333 0 0 1 -0.10848,0.16934 0.44185416,0.44185416 0 0 1 -0.15875,0.10054 0.52916666,0.52916666 0 0 1 -0.19315,0.0344 0.52916666,0.52916666 0 0 1 -0.19579,-0.0344 0.44185416,0.44185416 0 0 1 -0.15875,-0.10054 0.49212499,0.49212499 0 0 1 -0.0979,-0.16404 0.70114582,0.70114582 0 0 1 0,-0.46832 0.49477083,0.49477083 0 0 1 0.10848,-0.16933 0.44449999,0.44449999 0 0 1 0.1614,-0.10319 0.55297916,0.55297916 0 0 1 0.38364,0 0.43391666,0.43391666 0 0 1 0.15875,0.10319 0.50270833,0.50270833 0 0 1 0.10848,0.16933 0.63235416,0.63235416 0 0 1 0.0397,0.23284"
         inkscape:connector-curvature="0" />
      <polygon
         transform="matrix(0.26458333,0,0,0.26458333,124.82664,299.64583)"
         id="polygon40"
         style="fill:#d50032"
         points="95.25,41.14 95.25,41.75 94.05,41.75 94.05,45.04 93.33,45.04 93.33,41.75 92.13,41.75 92.13,41.14 " />
      <polygon
         transform="matrix(0.26458333,0,0,0.26458333,124.82664,299.64583)"
         id="polygon42"
         style="fill:#d50032"
         points="97.35,41.74 97.35,42.7 98.95,42.7 98.95,43.3 97.35,43.3 97.35,44.44 99.28,44.44 99.28,45.04 96.64,45.04 96.64,41.14 99.14,41.14 99.14,41.74 " />
      <polygon
         transform="matrix(0.26458333,0,0,0.26458333,124.82664,299.64583)"
         id="polygon44"
         style="fill:#d50032"
         points="101.49,41.14 101.49,44.43 103.25,44.43 103.25,45.04 100.78,45.04 100.78,41.14 " />
      <path
         id="path46"
         style="fill:#d50032;stroke-width:0.26458332"
         d="m 155.48126,308.2977 a 1.17475,1.17475 0 0 1 -0.32014,0.14553 1.3890625,1.3890625 0 0 1 -0.42069,0.0608 0.87841666,0.87841666 0 0 1 -0.66939,-0.26458 1.2356042,1.2356042 0 0 1 -0.26459,-0.87048 1.3705416,1.3705416 0 0 1 0.26459,-0.88636 0.94456249,0.94456249 0 0 1 0.79375,-0.33602 2.9104166,2.9104166 0 0 1 0.37041,0.0185 c 0.0979,0 0.17992,0.0265 0.24871,0.0423 z m 0.24078,-2.87072 a 5.1752499,5.1752499 0 0 0 -0.86519,-0.0688 2.286,2.286 0 0 0 -0.84402,0.14817 1.8176875,1.8176875 0 0 0 -0.62971,0.4101 1.7409583,1.7409583 0 0 0 -0.39423,0.635 2.3495,2.3495 0 0 0 -0.13494,0.81228 2.4685625,2.4685625 0 0 0 0.127,0.83079 1.6536458,1.6536458 0 0 0 0.35454,0.6006 1.4710833,1.4710833 0 0 0 0.55034,0.36248 1.9393958,1.9393958 0 0 0 0.70643,0.12435 1.7965208,1.7965208 0 0 0 0.52917,-0.0688 2.460625,2.460625 0 0 0 0.36777,-0.14023 v 0.64559 a 0.91545832,0.91545832 0 0 1 -0.24077,0.68791 1.1350625,1.1350625 0 0 1 -0.79375,0.23284 3.3152291,3.3152291 0 0 1 -0.66146,-0.0609 l -0.10848,-0.0212 a 7.7602291,7.7602291 0 0 1 0.34132,0.86254 c 0.14552,0 0.29104,0.0185 0.41275,0.0185 q 1.01335,0 1.50548,-0.44979 0.49212,-0.44979 0.49212,-1.41552 v -3.99786 q -0.28575,-0.0794 -0.69585,-0.14816"
         inkscape:connector-curvature="0" />
    </g>
  </g>
</svg>
